<?xml version="1.0" encoding="utf-8"?>
<!-- Generator: Adobe Illustrator 26.0.1, SVG Export Plug-In . SVG Version: 6.00 Build 0)  -->
<svg version="1.1" id="Layer_1" xmlns="http://www.w3.org/2000/svg" xmlns:xlink="http://www.w3.org/1999/xlink" x="0px" y="0px"
	 viewBox="0 0 2280 360" style="enable-background:new 0 0 2280 360;" xml:space="preserve">
<style type="text/css">
	.st0{fill:#00AEF0;}
	.st1{fill:#1A75BD;}
	.st2{fill:#F7F7F7;}
	.st3{fill:#24ADFB;}
	.st4{fill:#FD9E03;}
	.st5{fill:#EB7006;}
	.st6{fill:#24B3FC;}
	.st7{fill:#0D72B4;}
	.st8{fill:#0A537C;}
</style>
<g>
	<g>
		<path class="st0" d="M269.56,225.73c-0.04,2.17-0.14,4.34-0.3,6.51c-1.44,19.15-6.48,37.08-15.41,53.68
			c-2.37,4.42-5.02,8.75-7.96,12.98c-4.65,6.7-9.78,12.92-15.42,18.62c-0.03,0.03-0.06,0.05-0.09,0.08
			c-4.07,4.09-8.37,7.91-12.98,11.42c-0.37,0.29-0.73,0.57-1.1,0.84c-14.37,10.75-30.27,18.37-47.81,22.74
			c-12.14,3.01-24.36,4.37-36.78,3.79c-15.27-0.72-28.69-6.22-39.86-16.77c-4.83-4.57-8.81-9.54-11.94-14.9
			c-1.16-1.96-2.19-3.98-3.11-6.06c-3.63-8.13-5.46-17.02-5.57-26.6c-0.01-0.25-0.01-0.49,0-0.74c0-0.54,0.01-1.1,0.03-1.64v-0.15
			c0.19-6.22,1.32-12.24,3.37-17.98c1.57-4.48,3.71-8.8,6.38-12.96c8.8-13.66,19.11-26.16,29.56-38.54
			c12.98-15.39,26.39-30.39,39.38-45.77c7.84-9.29,15.32-18.91,22.4-28.81c8.93-12.47,16.72-25.57,22.59-39.76
			c6.33-15.35,9.18-31.23,7.08-47.83c-0.08-0.58-0.13-1.17-0.16-1.75c-0.03-0.29,0.03-0.57,0.04-0.86c0.21-0.1,0.42-0.2,0.62-0.29
			c1.95,3.02,3.92,6.03,5.83,9.08c8.83,14.06,17.22,28.39,24.97,43.07c7.55,14.34,14.44,29.02,20.27,44.17
			c2.46,6.37,4.75,12.79,6.8,19.28c2.01,6.42,3.8,12.92,5.25,19.52C268.24,201.84,269.79,213.74,269.56,225.73z"/>
		<path class="st1" d="M47.77,322.93c-4.38-3.05-7.8-6.81-11.16-10.61c-10.94-12.36-19.52-26.17-25.35-41.65
			c-1.14-3.03-2.17-6.11-3.1-9.21c-9.41-31.66-7.15-64,8.17-93.81c8.99-17.5,20.51-33.2,32.81-48.41
			c13.08-16.18,26.83-31.82,39.42-48.4c15.75-20.74,29.32-42.74,37.96-67.48c4.31-12.36,7.47-25.02,8.86-38.08
			c0.08-0.77-0.04-1.75,0.74-2.12c1.06-0.5,1.56,0.6,2.1,1.19c15.27,16.58,28.47,34.54,36.42,55.87c9.05,24.28,9.23,48.68,1.1,73.3
			c-7.63,23.11-20.59,43.12-35.14,62.3c-12.34,16.28-25.8,31.62-39.07,47.13c-11.49,13.43-22.98,26.85-33.13,41.36
			c-5.18,7.41-9.94,15.06-13.91,23.21c-3.71,7.63-6.74,15.49-8.29,23.86c-1.78,9.61-1.45,19.14,1.25,28.57
			c0.22,0.75,0.38,1.52,0.55,2.28C48.03,322.29,47.95,322.39,47.77,322.93z"/>
	</g>
	<g>
		<path class="st2" d="M265.65,190.09c-1.45-6.6-3.24-13.09-5.25-19.52c-6.46-0.01-12.93-0.14-19.39,0.05
			c-4,0.11-5.96-1.45-7.01-5.57c-1.46-5.75-3.39-11.37-7.33-15.89c-6.86-7.89-14.74-7.72-21.09,0.68
			c-3.84,5.07-5.85,11.14-7.35,17.38c-0.81,3.39-2.54,5.16-5.75,5.99c-40.47,10.53-60.79,40.24-67.99,82.38
			c-0.33,1.95-0.93,3.97-0.77,5.89c1.49,16.92-11.29,17.7-21.17,20.93c-11.18,3.64-20.86-0.45-27.26-9.96
			c-0.21-0.31-0.43-0.62-0.64-0.92c-2.05,5.74-3.19,11.76-3.37,17.98v0.15c-0.01,0.54-0.03,1.1-0.03,1.64
			c-0.01,0.25-0.01,0.49,0,0.74c0.1,9.58,1.94,18.47,5.57,26.6c5.94,6.89,16.13,8.12,24.82,1.83c20.76-15.03,22.01-15.05,42.75-0.24
			c9.46,6.76,12.91,6.7,22.32-0.4c18.57-13.99,19-13.99,38.21-0.63c12,8.35,14.59,8.18,25.47-1.62c0.03-0.03,0.06-0.05,0.09-0.08
			c5.64-5.7,10.78-11.92,15.42-18.62c2.93-4.23,5.59-8.56,7.96-12.98c-3.31-0.72-6.69-3.27-10.12-7.69
			c-7.01-9.02-18.69-10.89-28.44-4.31c-3.12,2.1-5.87,4.83-8.81,7.27c-2.95,2.43-5.94,4.66-9.91,4.95
			c-14.04,1.01-20.16-6.06-17.92-20.79c1.83-11.9,5.62-22.59,15.2-30.03c3.53-2.74,5.85-2.78,7.19,2.19
			c0.39,1.47,1.06,2.9,1.79,4.22c3.14,5.69,6.81,10.71,13.8,10.59c6.96-0.13,10.6-5.12,13.51-10.99c1.16-2.34,2.61-4.76,2.92-7.28
			c0.93-7.5,5.1-8.81,11.29-8.44c8.02,0.49,16.08-0.03,24.11,0.16c0.39,0.01,0.77,0,1.11-0.04
			C269.79,213.74,268.24,201.84,265.65,190.09z M225.06,217.4c-0.68,6.37-2.18,12.62-5.16,18.29c-0.89,1.71-1.91,4.17-4.04,3.27
			c-3.42-1.45-4.16-5.3-4.96-8.69c-0.69-2.88,1.61-3.22,3.46-3.34c6.17-0.34,8.69-3.98,8.76-10.32c0.04-3.74,0.69-7.47,0.76-11.22
			c0.13-7.81-1.08-8.85-8.31-7.74c-34.84,5.36-59.19,32.69-62.92,70.32c-0.39,3.94,0.16,8.27-2.27,12.15
			c-2.4-1.85-1.85-4.21-1.84-6.28c0.45-39.45,26.82-72.57,63.3-79.56c12.02-2.3,11.91-2.29,10.88-15.55
			c-0.43-5.54-2.32-8.74-8.01-8.26c-1.49,0.13-3.42,0.86-4.41-1.27c-0.86-1.83,3.08-11.71,5.16-12.28c4.22-1.13,4.51,3.11,5.43,5.58
			C227.57,180.3,227.04,198.83,225.06,217.4z"/>
		<path class="st2" d="M217.4,329.01c-0.37,0.29-0.73,0.57-1.1,0.84c-14.37,10.75-30.27,18.37-47.81,22.74
			c-12.14,3.01-24.36,4.37-36.78,3.79c-15.27-0.72-28.69-6.22-39.86-16.77c-4.83-4.57-8.81-9.54-11.94-14.9
			c9.72,6.87,15.46,5.68,26.84-3.22c14.1-11.05,18.35-11.09,32.5-0.25c13.81,10.56,18.41,10.54,32.03-0.15
			c12.98-10.19,14.63-10.26,27.99-1.11C208.16,326.07,212.84,329.14,217.4,329.01z"/>
	</g>
	<path class="st2" d="M393.65,224.93H253.92v-54.3h101.35c2.11,20.36,11.23,36.05,26.21,47.05
		C385.23,220.48,389.21,222.83,393.65,224.93z"/>
</g>
<g>
	<path class="st3" d="M533.6,162.61c0,13.11-3.04,24.81-9.6,35.11c-6.32,10.3-15.68,18.49-28.09,24.34
		c-12.17,5.85-26.68,8.66-43.77,8.66c-19.66,0-36.75-3.51-51.03-10.77c-4.45-2.11-8.43-4.45-12.17-7.26
		c-14.98-11-24.11-26.68-26.21-47.05c-0.47-1.64-0.7-3.51-0.7-5.38h71.16c1.17,12.17,6.55,18.26,16.38,18.26
		c3.51,0,6.55-0.7,9.13-2.58c2.58-1.64,3.75-4.21,3.75-7.96c0-4.92-2.57-9.13-8.19-12.17c-5.38-3.04-13.81-6.79-25.28-10.77
		c-13.58-4.68-25.04-9.6-33.94-14.04c-8.89-4.68-16.62-11.47-22.94-20.36c-6.55-8.66-9.6-20.13-9.36-33.94
		c0-14.04,3.51-25.75,10.53-35.58c7.26-9.6,17.09-17.09,29.26-22c12.4-5.15,26.45-7.72,41.9-7.72c26.21,0,46.81,6.09,62.26,18.26
		c15.45,11.94,23.41,29.02,24.34,50.79h-72.09c-0.23-5.85-1.87-10.3-4.68-12.87c-2.81-2.58-6.08-3.98-10.06-3.98
		c-2.81,0-5.15,0.94-7.02,3.04c-1.87,1.87-2.81,4.45-2.81,7.96c0,4.68,2.81,8.66,8.19,11.94c5.15,3.04,13.81,6.79,25.28,11.23
		c13.58,4.92,24.58,9.83,33.47,14.51c8.66,4.68,16.38,11,22.7,19.19C530.56,139.67,533.6,150.2,533.6,162.61z"/>
	<path class="st3" d="M694.13,196.36h-71.18l-10.56,32.27h-70.26l78.12-213.52h77.2l77.81,213.52h-70.57L694.13,196.36z
		 M677.84,146.01l-19.3-59.42l-19.3,59.42H677.84z"/>
	<path class="st3" d="M1005.34,15.11l-71.77,213.52h-86.56L775.24,15.11h71.18l44.02,146.87l43.74-146.87H1005.34z"/>
	<path class="st3" d="M1087.38,68.5v26.24h66.34v50.37h-66.34v30.15h75.4v53.38h-142.36V15.11h142.36V68.5H1087.38z"/>
	<path class="st2" d="M1288.69,217.03c-16.39-9.14-29.36-21.91-38.9-38.3c-9.55-16.39-14.33-34.84-14.33-55.34
		c0-20.51,4.78-38.92,14.33-55.19c9.54-16.29,22.51-29.01,38.9-38.16c16.38-9.14,34.33-13.71,53.83-13.71
		c19.7,0,37.75,4.57,54.14,13.71c16.38,9.15,29.3,21.87,38.76,38.16c9.44,16.27,14.17,34.68,14.17,55.19
		c0,20.5-4.73,38.95-14.17,55.34c-9.45,16.39-22.38,29.15-38.76,38.3c-16.39,9.15-34.44,13.73-54.14,13.73
		C1323.02,230.75,1305.07,226.18,1288.69,217.03z M1379.62,191.39c10.86-6.33,19.35-15.38,25.49-27.14
		c6.13-11.76,9.19-25.38,9.19-40.86c0-15.49-3.06-29.05-9.19-40.72c-6.14-11.66-14.63-20.61-25.49-26.83
		c-10.86-6.23-23.22-9.35-37.1-9.35s-26.24,3.12-37.1,9.35c-10.86,6.23-19.35,15.18-25.47,26.83c-6.14,11.67-9.2,25.23-9.2,40.72
		c0,15.47,3.06,29.1,9.2,40.86c6.13,11.76,14.62,20.81,25.47,27.14c10.86,6.33,23.22,9.5,37.1,9.5S1368.76,197.72,1379.62,191.39z"
		/>
	<path class="st2" d="M1486.22,68.2c9.54-16.29,22.51-29.01,38.9-38.16c16.38-9.14,34.33-13.71,53.83-13.71
		c22.32,0,42.17,5.47,59.57,16.43c17.38,10.96,30,26.49,37.84,46.6h-41.32c-5.43-11.05-12.96-19.3-22.62-24.73
		c-9.65-5.43-20.81-8.14-33.47-8.14c-13.87,0-26.24,3.12-37.1,9.35c-10.86,6.23-19.35,15.18-25.47,26.83
		c-6.14,11.67-9.2,25.23-9.2,40.72c0,15.47,3.06,29.05,9.2,40.71c6.13,11.66,14.62,20.66,25.47,26.99c10.86,6.33,23.22,9.5,37.1,9.5
		c12.66,0,23.83-2.72,33.47-8.15c9.66-5.43,17.19-13.67,22.62-24.72h41.32c-7.84,20.1-20.46,35.58-37.84,46.44
		c-17.39,10.86-37.25,16.29-59.57,16.29c-19.7,0-37.69-4.57-53.98-13.71c-16.29-9.15-29.21-21.86-38.76-38.15
		c-9.55-16.29-14.33-34.69-14.33-55.19C1471.89,102.87,1476.67,84.47,1486.22,68.2z"/>
	<path class="st2" d="M1750.86,46.78v61.52h72.38v28.05h-72.38v64.24h81.43v28.05h-115.81V18.74h115.81v28.05H1750.86z"/>
	<path class="st2" d="M2000.88,185.81h-87.76l-15.09,42.82h-35.89l75.1-209.9h39.81l75.1,209.9h-36.2L2000.88,185.81z
		 M1991.22,157.77l-34.08-97.42l-34.38,97.42H1991.22z"/>
	<path class="st2" d="M2256.91,228.64h-34.39L2119.08,72.12v156.52h-34.38V18.74h34.38l103.44,156.22V18.74h34.39V228.64z"/>
</g>
<g>
	<path class="st4" d="M1285.76,87.61c2.71-5.06,6.04-9.61,9.88-13.73c25.43-27.27,65.4-28.09,91.91-1.93
		c4.47,4.41,8.24,9.41,11.42,14.95c0.48,0.84,1.09,1.56-0.5,2c-8.95,2.52-17.24,6.96-25.93,10.26c-7.06,2.68-14.22,4.69-21.81,4.06
		c-5.51-0.46-10.54-2.64-15.5-5.04c-7.59-3.67-15.04-7.71-23.23-9.74c-8.06-2-16.15-2.69-24.33-0.77
		C1287.12,87.8,1286.53,88.11,1285.76,87.61z"/>
	<path class="st5" d="M1297.33,93.56c11.35-0.05,21.34,3.38,31.03,8.16c3.98,1.97,7.99,3.89,12.02,5.73
		c9.18,4.19,18.41,3.37,27.69,0.27c8.53-2.85,16.58-7.05,25.04-10.08c2.54-0.91,5.14-1.59,7.7-2.43c1.34-0.44,2.16-0.23,2.71,1.37
		c1.57,4.49,3,9.01,3.79,13.74c0.16,0.93,0.36,1.63-0.99,1.73c-8,0.58-15.28,3.91-22.6,7.03c-5.94,2.53-11.85,5.1-18.01,7
		c-9.95,3.07-19.5,2.2-28.88-2.52c-6.99-3.52-13.94-7.15-21.39-9.53c-12.14-3.88-24.17-3.91-36.14,0.75
		c-2.39,0.93-2.4,0.89-2.01-1.84c0.71-4.98,1.92-9.82,3.54-14.56c0.48-1.4,1.15-2.19,2.56-2.57
		C1288.15,94.51,1292.91,93.32,1297.33,93.56z"/>
	<path class="st6" d="M1297.77,119.85c11.61-0.04,21.68,3.67,31.48,8.55c4.99,2.48,9.93,5.11,15.23,6.79
		c8.52,2.7,16.78,1.12,24.97-1.7c8.08-2.78,15.76-6.7,23.77-9.65c4.3-1.58,8.67-2.8,13.23-3.23c1.56-0.14,2.21,0.29,2.1,2.03
		c-0.17,2.47-0.24,4.94-0.33,7.41c-0.03,0.96-0.37,1.47-1.35,1.39c-10.05-0.79-18.87,3.72-27.87,7.44
		c-5.69,2.35-11.33,4.82-17.21,6.6c-9.88,3-19.36,2.1-28.68-2.52c-6.87-3.42-13.66-7.1-20.96-9.43
		c-10.92-3.48-21.91-4.39-32.93-0.56c-1.85,0.64-2.32,0.11-2.41-1.82c-0.4-8.27-1.75-6.24,5.78-8.84
		C1287.72,120.53,1292.99,119.56,1297.77,119.85z"/>
	<path class="st7" d="M1405.51,145.01c-1.08,3.71-2.37,6.92-3.76,10.09c-0.31,0.71-0.71,1.16-1.51,1.14
		c-9.75-0.3-18.42,3.83-27.2,7.55c-6.22,2.64-12.44,5.26-18.97,6.99c-8.64,2.29-16.96,1.58-25.08-2.25
		c-5.24-2.47-10.45-5.02-15.73-7.39c-8.96-4.03-18.29-6.13-28.05-5.68c-1.28,0.06-2.08-0.28-2.54-1.66
		c-0.65-1.95-1.41-3.87-2.23-5.75c-0.67-1.53-0.2-1.99,1.24-2.37c11.22-2.91,22.15-1.58,32.95,2.32c6.57,2.37,12.8,5.63,19.05,8.78
		c10.23,5.16,20.53,5.05,31.06,1.36c7.85-2.75,15.36-6.46,23.13-9.43C1393.49,146.57,1399.16,144.71,1405.51,145.01z"/>
	<path class="st8" d="M1293.68,170.99c6.5,0.59,12.56,2.26,18.4,4.83c4.74,2.09,9.47,4.22,14.05,6.68
		c11.02,5.91,22.18,6.14,33.7,1.85c7.58-2.82,14.93-6.29,22.49-9.15c2.4-0.91,4.8-1.86,7.62-2.29
		C1362.85,203.41,1317.04,200.55,1293.68,170.99z"/>
</g>
</svg>
